<mxfile host="app.diagrams.net" modified="2023-04-06T02:20:17.191Z" agent="Mozilla/5.0 (Windows NT 10.0; Win64; x64) AppleWebKit/537.36 (KHTML, like Gecko) Chrome/110.0.0.0 Safari/537.36" version="21.1.1" etag="v-PcNjCHpdAp-TCEc_5E" type="github">
  <diagram name="第 1 页" id="eOh4oNWU0r7mMRByje_H">
    <mxGraphModel>
      <root>
        <mxCell id="0" />
        <mxCell id="1" parent="0" />
      </root>
    </mxGraphModel>
  </diagram>
</mxfile>
